<svg width="193" height="193" viewBox="0 0 193 193" fill="none" xmlns="http://www.w3.org/2000/svg">
<path d="M192.405 105.45C191.116 117.944 188.025 129.865 181.774 140.903C166.988 167.013 145.8 184.533 115.885 190.503C112.721 191.134 109.559 191.773 106.033 192.005C106.975 189.713 108.027 187.574 109.621 185.974C135.104 160.384 160.634 134.841 186.243 109.377C187.93 107.699 190.334 106.742 192.405 105.45Z" fill="#59C3F9"/>
<path d="M188.444 68.4674C189.489 73.5005 190.533 78.5337 191.27 83.7364C189.618 77.9108 187.239 81.3076 185.202 83.3427C150.986 117.529 116.775 151.721 82.6632 186.012C81.4385 187.244 81.2451 189.501 80.5711 191.28C77.1699 190.662 73.7687 190.045 69.8219 189.174C69.045 188.702 68.7722 188.571 68.4576 188.526C68.4576 188.526 68.5439 188.495 68.4279 188.218C68.6859 186.657 68.6789 185.012 69.4972 184.148C74.1402 179.248 79.1444 174.684 83.6905 169.7C86.2918 166.847 88.2574 163.416 90.7335 160.011C93.1685 158.387 95.3793 156.996 97.9082 155.451C121.223 139.864 140.301 120.554 155.788 97.2738C157.197 95.5684 158.301 93.98 159.762 92.3713C165.595 87.4039 170.969 82.3391 176.578 77.5505C180.362 74.3211 184.477 71.4814 188.444 68.4674Z" fill="#62B9F9"/>
<path d="M192.479 104.989C190.334 106.742 187.93 107.699 186.242 109.377C160.634 134.841 135.104 160.384 109.621 185.974C108.027 187.574 106.975 189.713 105.622 191.941C100.881 192.329 96.1881 192.378 91.0415 192C91.5355 190.079 92.2451 188.347 93.4648 187.124C124.731 155.77 156.037 124.455 187.41 93.2079C188.706 91.9175 190.724 91.3518 192.405 90.4485C192.454 95.1416 192.504 99.8347 192.479 104.989Z" fill="#5ABEF9"/>
<path d="M102.701 0.392136C105.209 0.459343 107.718 0.526543 110.289 1.27287C109.518 3.18645 108.852 4.58613 107.824 5.62883C100.508 13.0494 93.1677 20.4481 85.7344 27.7511C80.2791 33.1108 74.54 38.1849 69.1536 43.6108C48.15 64.7681 27.2706 86.0487 6.19603 107.135C5.06126 108.27 2.56989 108.049 0.710023 108.46C0.335847 105.413 -0.0383294 102.366 0.00315957 98.8339C2.42328 96.9282 4.67873 95.7594 6.39487 94.0493C35.7249 64.8236 64.9888 35.5316 94.2629 6.24974C95.2023 5.31002 95.9571 4.11256 97.0398 3.40562C98.8226 2.24158 100.803 1.38078 102.701 0.392136Z" fill="#C595F8"/>
<path d="M102.48 0.00770934C100.803 1.38078 98.8225 2.24159 97.0398 3.40563C95.9571 4.11256 95.2023 5.31002 94.2629 6.24974C64.9888 35.5316 35.7248 64.8236 6.39483 94.0493C4.67869 95.7594 2.42324 96.9282 0.078939 98.3968C-0.062663 93.6996 0.135549 88.9545 0.861852 83.7779C3.64184 81.6887 6.14658 80.2851 8.10712 78.3345C31.6604 54.9007 55.1623 31.4149 78.5753 7.84096C80.6095 5.79279 81.9186 3.02444 83.5646 0.590626C89.7964 0.268185 96.0283 -0.0542717 102.48 0.00770934Z" fill="#D093F8"/>
<path d="M192.478 90.054C190.724 91.3518 188.706 91.9175 187.41 93.2079C156.037 124.455 124.731 155.77 93.4648 187.124C92.2451 188.347 91.5354 190.079 90.5805 191.927C87.5176 191.996 84.4624 191.712 80.9891 191.353C81.2451 189.501 81.4385 187.244 82.6632 186.012C116.775 151.721 150.986 117.529 185.202 83.3427C187.239 81.3076 189.618 77.9108 191.193 84.1643C191.798 86.1684 192.175 87.914 192.478 90.054Z" fill="#5CBBF9"/>
<path d="M0.631836 108.887C2.56984 108.049 5.06122 108.27 6.19598 107.135C27.2705 86.0487 48.15 64.7681 69.1535 43.6108C74.54 38.1849 80.279 33.1108 85.7343 27.7511C93.1676 20.4481 100.508 13.0494 107.824 5.62883C108.852 4.58613 109.518 3.18645 110.493 1.6329C113.86 1.76906 117.085 2.2243 120.164 3.10332C116.99 6.29311 113.846 8.94261 110.96 11.8491C104.717 18.1372 98.6125 24.5623 92.4405 30.9208C89.1322 34.329 85.715 37.6386 82.5661 41.1872C82.0394 41.7808 82.6336 43.3691 82.5695 44.8179C79.0223 47.8607 75.3445 50.3096 72.2613 53.3595C64.2699 61.2648 56.5403 69.4348 48.3169 77.4863C45.9556 78.4849 43.5855 79.0904 42.0747 80.572C30.1864 92.2306 18.4315 104.026 6.72411 115.867C5.1378 117.472 4.04312 119.562 2.72079 121.427C1.99841 117.39 1.27605 113.352 0.631836 108.887Z" fill="#BD99F8"/>
<path d="M83.13 0.51738C81.9186 3.02444 80.6095 5.79279 78.5753 7.84096C55.1623 31.4149 31.6604 54.9007 8.10713 78.3345C6.14659 80.2851 3.64185 81.6887 1.05212 83.3932C2.07164 76.8736 3.42895 70.3073 5.49309 63.5791C7.60211 62.6486 9.27574 62.1533 10.366 61.0705C27.3611 44.1918 44.3189 27.2746 61.1452 10.2281C62.4809 8.87488 62.7848 6.5032 63.5682 4.60485C69.9439 3.21795 76.3197 1.83105 83.13 0.51738Z" fill="#DC91F8"/>
<path d="M63.2004 4.63823C62.7848 6.5032 62.4809 8.87488 61.1452 10.2281C44.3189 27.2746 27.3612 44.1918 10.366 61.0705C9.27577 62.1533 7.60214 62.6486 5.82849 63.4126C9.72482 55.0113 13.0672 45.9592 18.4534 38.3547C29.592 22.6289 44.8707 11.7289 63.2004 4.63823Z" fill="#E891F9"/>
<path d="M2.65686 121.791C4.04312 119.562 5.1378 117.472 6.72411 115.867C18.4315 104.026 30.1864 92.2306 42.0747 80.572C43.5855 79.0904 45.9556 78.4849 48.1727 77.7991C44.1591 84.1884 39.9005 90.2522 35.3472 96.5031C32.9005 100.296 30.7485 103.901 28.3999 107.269C26.6516 108.011 24.9191 108.792 23.5786 110.005C17.2332 115.75 10.9949 121.612 4.71843 127.433C4.00993 125.673 3.30144 123.913 2.65686 121.791Z" fill="#B69AF8"/>
<path d="M188.519 68.0828C184.478 71.4814 180.362 74.3211 176.578 77.5505C170.969 82.3391 165.595 87.4039 159.83 92.0248C160.236 89.9696 160.933 88.2406 161.896 86.2884C163.651 82.541 165.138 79.0169 166.885 75.234C168.312 70.1425 169.48 65.3098 170.876 60.4715C171.104 60.4658 171.559 60.4403 171.906 60.401C175.732 58.3759 179.212 56.3903 182.691 54.4047C184.659 58.8358 186.626 63.267 188.519 68.0828Z" fill="#69B5F9"/>
<path d="M82.7099 44.4977C82.6337 43.3691 82.0395 41.7808 82.5662 41.1872C85.7151 37.6386 89.1323 34.329 92.4405 30.9208C98.6126 24.5623 104.717 18.1372 110.96 11.8491C113.846 8.94261 116.99 6.29311 120.357 3.46303C122.763 4.02846 124.83 4.65794 127.184 5.78333C122.089 11.9172 116.643 17.4965 111.383 23.2463C110.418 24.3021 110.208 26.0498 109.624 27.717C109.597 27.9559 109.569 28.436 109.209 28.481C104.705 30.8536 100.559 33.1812 96.0944 35.6281C91.4204 38.664 87.0651 41.5809 82.7099 44.4977Z" fill="#B69AF8"/>
<path d="M90.5093 160.245C88.2574 163.416 86.2919 166.847 83.6905 169.7C79.1444 174.684 74.1402 179.248 69.4972 184.148C68.6789 185.012 68.686 186.657 68.4074 188.259C63.4117 186.587 58.3204 184.596 52.9086 182.088C53.6213 179.99 54.7096 178.443 55.6729 176.822C56.704 175.086 57.6172 173.281 58.8399 171.469C59.2681 171.398 59.4382 171.363 59.9867 171.299C64.1464 170.04 67.9276 168.81 72.0843 167.561C74.8524 166.575 77.245 165.608 79.9988 164.594C82.4502 163.531 84.5405 162.516 86.9396 161.347C88.3353 160.877 89.4223 160.561 90.5093 160.245Z" fill="#69B5F9"/>
<path d="M4.65344 127.812C10.9949 121.612 17.2332 115.75 23.5786 110.005C24.9191 108.792 26.6517 108.011 28.3929 107.635C28.5143 108.97 28.4464 109.701 28.0993 110.621C26.6965 114.021 25.5729 117.231 24.2008 120.697C23.1616 124.121 22.3707 127.289 21.3384 130.459C21.097 130.46 20.6142 130.466 20.2473 130.467C16.402 133.148 12.9235 135.828 9.44501 138.507C7.82614 135.069 6.20728 131.63 4.65344 127.812Z" fill="#AC9DF8"/>
<path d="M109.65 27.4781C110.208 26.0498 110.418 24.3021 111.383 23.2463C116.643 17.4965 122.089 11.9172 127.52 5.94778C131.155 6.96648 134.742 8.31662 138.325 10.3063C135.74 14.1153 133.159 17.2847 130.365 20.5713C129.886 20.8866 129.693 21.1409 129.181 21.4614C125.384 22.4675 121.979 23.4635 118.2 24.4725C115.101 25.4831 112.375 26.4806 109.65 27.4781Z" fill="#AC9DF8"/>
<path d="M156.614 21.3071C161.212 25.7906 165.811 30.274 170.283 35.3027C170.614 38.7147 171.071 41.5816 171.169 44.3977C166.868 42.2293 162.999 39.1144 158.329 43.4422C157.91 43.4414 157.742 43.4411 157.563 43.0377C155.888 35.581 154.224 28.5272 152.888 21.5008C154.348 21.4545 155.481 21.3808 156.614 21.3071Z" fill="#A0BCFA"/>
<path d="M35.1073 171.318C30.3192 166.586 25.5311 161.854 21.0629 156.712C21.7791 155.35 22.1754 154.399 22.9742 153.449C29.1071 155.449 34.8376 157.449 40.5703 159.845C41.9059 163.961 43.2395 167.68 44.1686 171.409C40.8786 171.385 37.9929 171.351 35.1073 171.318Z" fill="#A0BCFA"/>
<path d="M22.5718 153.447C22.1754 154.399 21.779 155.35 21.0577 156.376C17.0075 150.711 13.2821 144.972 9.50085 138.87C12.9235 135.828 16.402 133.148 20.2363 130.905C20.5872 135.71 20.5825 140.079 20.5735 144.864C21.2368 148.003 21.9043 150.725 22.5718 153.447Z" fill="#9FA2F8"/>
<path d="M156.465 20.9883C155.481 21.3808 154.348 21.4545 152.487 21.4341C148.697 21.0412 145.638 20.7425 142.117 20.4396C137.963 20.4417 134.27 20.4479 130.577 20.4541C133.159 17.2847 135.74 14.1153 138.473 10.6409C144.521 13.7805 150.418 17.225 156.465 20.9883Z" fill="#9FA2F8"/>
<path d="M171.528 44.4484C171.071 41.5816 170.614 38.7147 170.416 35.6258C174.646 41.4942 178.617 47.5846 182.639 54.0399C179.212 56.3903 175.732 58.3759 171.906 59.9349C171.55 54.4882 171.539 49.4683 171.528 44.4484Z" fill="#74B0F9"/>
<path d="M35.126 171.3C37.9929 171.351 40.8785 171.385 44.6329 171.429C49.8618 171.462 54.2219 171.484 58.582 171.506C57.6172 173.281 56.704 175.086 55.6728 176.822C54.7096 178.443 53.6213 179.991 52.5802 181.925C47.4525 179.046 42.3327 175.813 36.8375 172.14C36.0079 171.567 35.5537 171.435 35.0995 171.303C35.0995 171.303 35.1448 171.283 35.126 171.3Z" fill="#74B0F9"/>
<path d="M35.2496 171.501C35.5537 171.435 36.008 171.567 36.5187 171.992C36.1834 172.09 35.7916 171.894 35.2496 171.501Z" fill="#A0BCFA"/>
<path d="M68.549 188.773C68.7722 188.571 69.0451 188.702 69.4146 189.104C69.2487 189.198 68.9445 189.109 68.549 188.773Z" fill="#69B5F9"/>
<path d="M155.788 97.2738C154.253 94.6643 153.55 91.5005 151.705 89.2862C143.237 79.1173 134.449 69.2137 125.537 58.6669C125.009 57.9201 124.72 57.7213 124.431 57.5226C124.431 57.5226 124.512 57.5098 124.399 57.3091C124.001 56.9137 123.717 56.7189 123.432 56.5241C123.432 56.5241 123.527 56.483 123.531 56.0906C123.547 53.9475 123.56 52.1969 123.922 50.4893C128.704 52.838 133.137 55.1437 137.867 57.6082C145.985 67.3486 153.807 76.9302 161.629 86.5117C160.933 88.2406 160.236 89.9696 159.472 92.045C158.301 93.98 157.197 95.5684 155.788 97.2738Z" fill="#D5E5FD"/>
<path d="M70.4335 137.441C78.2456 143.348 86.0352 149.285 93.9095 155.108C94.5888 155.61 95.8289 155.355 97.1993 155.528C95.3793 156.996 93.1685 158.387 90.7335 160.011C89.4222 160.561 88.3353 160.877 86.6407 161.185C76.8793 153.267 67.7256 145.357 58.5338 137.103C58.1887 135.654 57.8814 134.549 57.9971 133.445C60.4889 133.067 62.5577 132.689 64.6265 132.311C64.6265 132.311 65.1078 132.43 65.4845 132.692C66.0979 133.177 66.3779 133.31 66.701 133.352C66.701 133.352 66.6102 133.402 66.7365 133.594C67.1442 133.977 67.4257 134.169 67.7072 134.361C67.7072 134.361 67.6202 134.395 67.7415 134.591C68.1443 134.977 68.4258 135.169 68.7073 135.36C68.7073 135.36 68.6201 135.396 68.7415 135.59C69.1443 135.977 69.4258 136.169 69.7073 136.36C69.7073 136.36 69.6121 136.408 69.7036 136.588C69.9346 137.062 70.1474 137.286 70.4335 137.441Z" fill="#D5E5FD"/>
<path d="M35.3473 96.5031C39.56 101.773 43.4782 107.231 47.1273 113.042C45.3013 113.022 43.7592 112.562 42.1844 112.291C38.3231 111.628 34.4469 111.052 30.2114 110.441C29.3569 110.438 28.8678 110.435 28.3785 110.432C28.4464 109.701 28.5143 108.97 28.5893 107.873C30.7485 103.901 32.9006 100.296 35.3473 96.5031Z" fill="#E3E1FD"/>
<path d="M161.896 86.2884C153.807 76.9302 145.985 67.3486 137.821 57.2387C136.51 53.6217 135.541 50.5332 134.99 47.4455C136.796 47.4463 138.186 47.4462 139.873 47.6C146.161 54.3419 152.102 60.9762 158.185 67.4773C159.359 68.732 161.091 69.4655 162.62 70.7646C163.992 72.5574 165.309 74.0252 166.626 75.4929C165.138 79.0169 163.651 82.541 161.896 86.2884Z" fill="#C3DBFC"/>
<path d="M166.885 75.234C165.309 74.0252 163.992 72.5574 162.578 70.4136C160.585 66.4353 158.386 63.2666 156.861 59.8014C154.211 53.7822 151.977 47.5797 149.57 41.2006C149.572 40.7779 149.573 40.6089 149.931 40.4851C152.717 41.5005 155.146 42.4706 157.574 43.4407C157.742 43.4411 157.91 43.4414 158.367 43.797C162.654 49.5939 166.651 55.0355 170.648 60.4772C169.48 65.3098 168.312 70.1425 166.885 75.234Z" fill="#AECEFB"/>
<path d="M170.876 60.4715C166.651 55.0355 162.654 49.5939 158.619 43.7974C162.999 39.1144 166.868 42.2293 171.169 44.3977C171.539 49.4683 171.55 54.4882 171.56 59.9742C171.559 60.4403 171.104 60.4658 170.876 60.4715Z" fill="#9FC5FA"/>
<path d="M134.573 47.4447C135.541 50.5332 136.51 53.6217 137.525 57.0797C133.137 55.1437 128.704 52.838 123.879 50.1422C118.848 42.6466 114.208 35.5413 109.568 28.436C109.568 28.436 109.597 27.9559 109.624 27.717C112.375 26.4806 115.101 25.4831 118.207 24.8381C123.916 32.6087 129.244 40.0267 134.573 47.4447Z" fill="#D3D6FC"/>
<path d="M109.209 28.481C114.208 35.5413 118.848 42.6466 123.53 50.0991C123.56 52.1969 123.547 53.9475 123.504 56.1348C114.559 49.7678 105.645 42.9643 96.5723 35.8348C100.559 33.1812 104.705 30.8536 109.209 28.481Z" fill="#E3E1FD"/>
<path d="M58.5718 137.447C67.7256 145.357 76.8794 153.267 86.332 161.339C84.5405 162.516 82.4503 163.531 79.8486 164.27C70.0832 157.146 60.8291 150.297 51.5318 143.094C50.1817 139.976 48.8749 137.213 47.9438 134.498C51.737 135.513 55.1544 136.48 58.5718 137.447Z" fill="#C3DBFC"/>
<path d="M51.5751 143.449C60.8291 150.297 70.0832 157.146 79.4875 164.318C77.2451 165.608 74.8524 166.575 71.7764 167.386C65.5862 162.967 60.0793 158.706 54.5259 154.077C53.1763 150.29 51.8731 146.87 50.8212 143.449C51.24 143.449 51.4075 143.449 51.5751 143.449Z" fill="#B9D6FC"/>
<path d="M54.5724 154.444C60.0793 158.706 65.5862 162.967 71.401 167.405C67.9277 168.81 64.1464 170.04 59.9682 170.943C58.8323 169.385 58.377 167.751 57.3033 166.994C53.5067 164.316 49.4985 161.938 45.5271 159.095C44.1813 155.978 42.879 153.212 41.9585 150.454C46.4177 151.79 50.495 153.117 54.5724 154.444Z" fill="#AECEFB"/>
<path d="M45.5705 159.446C49.4985 161.938 53.5067 164.316 57.3033 166.994C58.377 167.751 58.8323 169.385 59.5898 170.972C59.4382 171.363 59.2681 171.398 58.8399 171.469C54.2219 171.484 49.8618 171.462 45.0374 171.419C43.2395 167.68 41.9059 163.961 40.9872 159.844C42.7916 159.447 44.1811 159.447 45.5705 159.446Z" fill="#9FC5FA"/>
<path d="M58.5338 137.103C55.1544 136.48 51.737 135.513 47.5961 134.454C45.0932 133.212 43.3335 132.031 41.5307 130.919C35.8456 127.412 30.1443 123.932 24.4492 120.441C25.5728 117.231 26.6965 114.021 28.0993 110.621C28.8677 110.435 29.3569 110.438 30.3636 110.742C39.7788 118.509 48.6765 125.977 57.5742 133.444C57.8814 134.549 58.1887 135.654 58.5338 137.103Z" fill="#D3D6FC"/>
<path d="M24.2008 120.697C30.1443 123.932 35.8456 127.412 41.5308 130.919C43.3335 132.031 45.0932 133.212 47.2204 134.406C48.8749 137.213 50.1817 139.976 51.5318 143.094C51.4075 143.449 51.24 143.449 50.4596 143.404C43.7569 141.055 37.6671 138.752 31.261 136.306C27.8231 134.261 24.7015 132.359 21.5799 130.457C22.3707 127.289 23.1616 124.121 24.2008 120.697Z" fill="#C7CCFB"/>
<path d="M21.3385 130.459C24.7015 132.359 27.8231 134.261 31.3017 136.653C34.6289 141.576 37.5991 146.008 40.1859 150.435C33.3943 148.434 26.986 146.441 20.5777 144.447C20.5825 140.079 20.5873 135.71 20.6031 130.904C20.6142 130.466 21.097 130.46 21.3385 130.459Z" fill="#B9C1FA"/>
<path d="M134.99 47.4455C129.244 40.0267 123.916 32.6087 118.581 24.8251C121.979 23.4635 125.384 22.4675 129.326 21.7781C131.768 25.8718 133.673 29.6588 135.585 33.835C136.921 38.6315 138.248 43.0388 139.575 47.4461C138.186 47.4462 136.796 47.4463 134.99 47.4455Z" fill="#C7CCFB"/>
<path d="M135.578 33.4458C133.673 29.6588 131.768 25.8718 129.719 21.7681C129.693 21.1409 129.886 20.8866 130.365 20.5713C134.27 20.4479 137.963 20.4417 142.124 20.8258C144.919 27.624 147.246 34.0319 149.573 40.4399C149.573 40.6089 149.572 40.7779 149.223 41.1559C144.443 38.7252 140.01 36.0855 135.578 33.4458Z" fill="#B9C1FA"/>
<path d="M149.931 40.4851C147.246 34.0319 144.919 27.624 142.585 20.8299C145.638 20.7425 148.697 21.0412 152.159 21.4067C154.224 28.5272 155.888 35.581 157.563 43.0377C155.146 42.4706 152.717 41.5005 149.931 40.4851Z" fill="#ADBEFA"/>
<path d="M20.5735 144.864C26.986 146.441 33.3943 148.434 40.4377 150.436C41.2408 150.445 41.4087 150.446 41.5766 150.446C42.879 153.212 44.1813 155.978 45.5271 159.095C44.1811 159.447 42.7916 159.447 40.9851 159.448C34.8376 157.449 29.1071 155.449 22.9742 153.449C21.9043 150.725 21.2368 148.003 20.5735 144.864Z" fill="#ADBEFA"/>
<path d="M57.9971 133.445C48.6765 125.977 39.7788 118.509 30.7289 110.741C34.4469 111.052 38.3231 111.628 42.1843 112.291C43.7591 112.562 45.3013 113.022 47.2646 113.365C47.6709 113.334 47.6144 113.374 47.7362 113.581C48.1405 113.982 48.4229 114.177 48.7053 114.371C48.7053 114.371 48.6235 114.392 48.7411 114.59C49.1411 114.982 49.4236 115.175 49.706 115.369C49.706 115.369 49.6237 115.392 49.7415 115.589C50.1419 115.98 50.4244 116.174 50.7069 116.367C50.7069 116.367 50.6191 116.402 50.7075 116.586C50.9374 117.067 51.1544 117.292 51.447 117.443C55.7583 122.192 60.0695 126.941 64.5037 132C62.5577 132.689 60.4889 133.067 57.9971 133.445Z" fill="#DCE1FD"/>
<path d="M123.519 56.7798C123.717 56.7189 124.001 56.9137 124.392 57.3495C124.201 57.4055 123.903 57.2205 123.519 56.7798Z" fill="#E3E1FD"/>
<path d="M70.4892 137.173C70.1475 137.286 69.9347 137.062 69.7303 136.542C69.9585 136.512 70.2517 136.709 70.4892 137.173Z" fill="#DCE1FD"/>
<path d="M69.6235 136.107C69.4258 136.169 69.1443 135.977 68.759 135.547C68.9499 135.49 69.2448 135.672 69.6235 136.107Z" fill="#DCE1FD"/>
<path d="M68.6235 135.107C68.4258 135.169 68.1443 134.977 67.7588 134.547C67.9498 134.49 68.2448 134.672 68.6235 135.107Z" fill="#DCE1FD"/>
<path d="M67.6235 134.107C67.4258 134.169 67.1443 133.977 66.7588 133.547C66.9498 133.49 67.2448 133.672 67.6235 134.107Z" fill="#DCE1FD"/>
<path d="M66.6135 133.094C66.3779 133.31 66.0979 133.177 65.7217 132.764C65.8967 132.661 66.2112 132.749 66.6135 133.094Z" fill="#DCE1FD"/>
<path d="M51.4933 117.173C51.1544 117.292 50.9374 117.067 50.7267 116.543C50.9514 116.511 51.2455 116.707 51.4933 117.173Z" fill="#E3E1FD"/>
<path d="M50.6213 116.113C50.4244 116.174 50.1419 115.98 49.7527 115.548C49.9426 115.492 50.2392 115.675 50.6213 116.113Z" fill="#E3E1FD"/>
<path d="M49.6205 115.115C49.4236 115.175 49.1412 114.982 48.7517 114.549C48.9415 114.493 49.2383 114.677 49.6205 115.115Z" fill="#E3E1FD"/>
<path d="M48.6198 114.116C48.4229 114.177 48.1405 113.982 47.7507 113.55C47.9404 113.494 48.2374 113.678 48.6198 114.116Z" fill="#E3E1FD"/>
<path d="M124.52 57.7824C124.72 57.7213 125.009 57.9201 125.41 58.3617C125.217 58.4171 124.913 58.2296 124.52 57.7824Z" fill="#E3E1FD"/>
<path d="M135.585 33.835C140.01 36.0855 144.443 38.7252 149.222 41.4095C151.977 47.5797 154.211 53.7822 156.861 59.8014C158.386 63.2666 160.585 66.4353 162.523 70.0884C161.091 69.4655 159.359 68.732 158.185 67.4773C152.102 60.9762 146.161 54.3419 139.873 47.6C138.248 43.0388 136.921 38.6315 135.585 33.835Z" fill="#BCCFFB"/>
<path d="M41.9585 150.454C41.4088 150.446 41.2409 150.445 40.8211 150.443C37.5991 146.008 34.6289 141.576 31.618 136.796C37.6671 138.752 43.757 141.055 50.2084 143.404C51.8732 146.87 53.1764 150.29 54.526 154.077C50.4951 153.117 46.4177 151.79 41.9585 150.454Z" fill="#BCCFFB"/>
</svg>
